999
Inkscape export via "Better Better DXF Output" (http://tim.cexx.org/?p=590)
  0
SECTION
  2
HEADER
  9
$ACADVER
  1
AC1014
  9
$HANDSEED
  5
FFFF
  0
ENDSEC
  0
SECTION
  2
TABLES
  0
TABLE
  2
VPORT
  5
8
330
0
100
AcDbSymbolTable
 70
     4
  0
VPORT
  5
2E
330
8
100
AcDbSymbolTableRecord
100
AcDbViewportTableRecord
  2
*ACTIVE
 70
     0
 10
0.0
 20
0.0
 11
1.0
 21
1.0
 12
4.25
 22
5.5
 13
0.0
 23
0.0
 14
10.0
 24
10.0
 15
10.0
 25
10.0
 16
0.0
 26
0.0
 36
1.0
 17
0.0
 27
0.0
 37
0.0
 40
11
 41
1.24
 42
50.0
 43
0.0
 44
0.0
 50
0.0
 51
0.0
 71
     0
 72
   100
 73
     1
 74
     3
 75
     0
 76
     0
 77
     0
 78
     0
  0
ENDTAB
  0
TABLE
  2
LTYPE
  5
5
330
0
100
AcDbSymbolTable
 70
     1
  0
LTYPE
  5
14
330
5
100
AcDbSymbolTableRecord
100
AcDbLinetypeTableRecord
  2
BYBLOCK
 70
     0
  3

 72
    65
 73
     0
 40
0.0
  0
LTYPE
  5
15
330
5
100
AcDbSymbolTableRecord
100
AcDbLinetypeTableRecord
  2
BYLAYER
 70
     0
  3

 72
    65
 73
     0
 40
0.0
  0
LTYPE
  5
16
330
5
100
AcDbSymbolTableRecord
100
AcDbLinetypeTableRecord
  2
CONTINUOUS
 70
     0
  3
Solid line
 72
    65
 73
     0
 40
0.0
  0
ENDTAB
  0
TABLE
  2
STYLE
  5
3
330
0
100
AcDbSymbolTable
 70
     1
  0
STYLE
  5
11
330
3
100
AcDbSymbolTableRecord
100
AcDbTextStyleTableRecord
  2
STANDARD
 70
     0
 40
0.0
 41
1.0
 50
0.0
 71
     0
 42
2.5
  3
txt
  4

  0
ENDTAB
  0
TABLE
  2
VIEW
  5
6
330
0
100
AcDbSymbolTable
 70
     0
  0
ENDTAB
  0
TABLE
  2
UCS
  5
7
330
0
100
AcDbSymbolTable
 70
     0
  0
ENDTAB
  0
TABLE
  2
APPID
  5
9
330
0
100
AcDbSymbolTable
 70
     2
  0
APPID
  5
12
330
9
100
AcDbSymbolTableRecord
100
AcDbRegAppTableRecord
  2
ACAD
 70
     0
  0
ENDTAB
  0
TABLE
  2
DIMSTYLE
  5
A
330
0
100
AcDbSymbolTable
 70
     1
  0
DIMSTYLE
105
27
330
A
100
AcDbSymbolTableRecord
100
AcDbDimStyleTableRecord
  2
ISO-25
 70
     0
  3

  4

  5

  6

  7

 40
1.0
 41
2.5
 42
0.625
 43
3.75
 44
1.25
 45
0.0
 46
0.0
 47
0.0
 48
0.0
140
2.5
141
2.5
142
0.0
143
0.03937007874016
144
1.0
145
0.0
146
1.0
147
0.625
 71
     0
 72
     0
 73
     0
 74
     0
 75
     0
 76
     0
 77
     1
 78
     8
170
     0
171
     3
172
     1
173
     0
174
     0
175
     0
176
     0
177
     0
178
     0
270
     2
271
     2
272
     2
273
     2
274
     3
340
11
275
     0
280
     0
281
     0
282
     0
283
     0
284
     8
285
     0
286
     0
287
     3
288
     0
  0
ENDTAB
  0
TABLE
  2
BLOCK_RECORD
  5
1
330
0
100
AcDbSymbolTable
 70
     1
  0
BLOCK_RECORD
  5
1F
330
1
100
AcDbSymbolTableRecord
100
AcDbBlockTableRecord
  2
*MODEL_SPACE
  0
BLOCK_RECORD
  5
1B
330
1
100
AcDbSymbolTableRecord
100
AcDbBlockTableRecord
  2
*PAPER_SPACE
  0
ENDTAB
0
TABLE
2
LAYER
5
2
330
0
100
AcDbSymbolTable
70
2
0
LAYER
5
10
330
2
100
AcDbSymbolTableRecord
100
AcDbLayerTableRecord
2
Default
70
0
62
7
6
CONTINUOUS
0
LAYER
5
10
330
2
100
AcDbSymbolTableRecord
100
AcDbLayerTableRecord
2
0
70
0
62
7
6
CONTINUOUS
0
ENDTAB
0
ENDSEC
  0
SECTION
  2
BLOCKS
  0
BLOCK
  5
20
330
1F
100
AcDbEntity
  8
0
100
AcDbBlockBegin
  2
*MODEL_SPACE
 70
     0
 10
0.0
 20
0.0
 30
0.0
  3
*MODEL_SPACE
  1

  0
ENDBLK
  5
21
330
1F
100
AcDbEntity
  8
0
100
AcDbBlockEnd
  0
BLOCK
  5
1C
330
1B
100
AcDbEntity
 67
     1
  8
0
100
AcDbBlockBegin
  2
*PAPER_SPACE
  1

  0
ENDBLK
  5
1D
330
1B
100
AcDbEntity
 67
     1
  8
0
100
AcDbBlockEnd
  0
ENDSEC
  0
SECTION
  2
ENTITIES
0
LINE
8
Default
62
4
5
100
100
AcDbEntity
100
AcDbLine
10
0.846667
20
297.846667
30
0.0
11
-0.846667
21
296.153333
31
0.0
0
LINE
8
Default
62
4
5
101
100
AcDbEntity
100
AcDbLine
10
0.000000
20
298.411111
30
0.0
11
0.000000
21
295.588889
31
0.0
0
LINE
8
Default
62
4
5
102
100
AcDbEntity
100
AcDbLine
10
2.257778
20
295.871111
30
0.0
11
1.128889
21
294.742222
31
0.0
0
LINE
8
Default
62
4
5
103
100
AcDbEntity
100
AcDbLine
10
1.693333
20
296.435556
30
0.0
11
0.564444
21
295.306667
31
0.0
0
LINE
8
Default
62
4
5
104
100
AcDbEntity
100
AcDbLine
10
1.128889
20
297.000000
30
0.0
11
0.000000
21
295.871111
31
0.0
0
LINE
8
Default
62
4
5
105
100
AcDbEntity
100
AcDbLine
10
0.846667
20
297.846667
30
0.0
11
-0.846667
21
296.153333
31
0.0
0
LINE
8
Default
62
4
5
106
100
AcDbEntity
100
AcDbLine
10
0.000000
20
298.411111
30
0.0
11
0.000000
21
295.588889
31
0.0
0
LINE
8
Default
62
4
5
107
100
AcDbEntity
100
AcDbLine
10
2.257778
20
295.871111
30
0.0
11
1.128889
21
294.742222
31
0.0
0
LINE
8
Default
62
4
5
108
100
AcDbEntity
100
AcDbLine
10
1.693333
20
296.435556
30
0.0
11
0.564444
21
295.306667
31
0.0
0
LINE
8
Default
62
4
5
109
100
AcDbEntity
100
AcDbLine
10
1.128889
20
297.000000
30
0.0
11
0.000000
21
295.871111
31
0.0
0
LINE
8
0
62
4
5
10a
100
AcDbEntity
100
AcDbLine
10
22.282333
20
34.852589
30
0.0
11
22.635886
21
34.999034
31
0.0
0
LINE
8
0
62
4
5
10b
100
AcDbEntity
100
AcDbLine
10
22.635886
20
34.999034
30
0.0
11
22.782333
21
35.352588
31
0.0
0
LINE
8
0
62
4
5
10c
100
AcDbEntity
100
AcDbLine
10
22.782333
20
47.852588
30
0.0
11
22.630092
21
48.617955
31
0.0
0
LINE
8
0
62
4
5
10d
100
AcDbEntity
100
AcDbLine
10
22.630092
20
48.617955
30
0.0
11
22.196547
21
49.266804
31
0.0
0
LINE
8
0
62
4
5
10e
100
AcDbEntity
100
AcDbLine
10
22.196547
20
49.266804
30
0.0
11
21.547700
21
49.700348
31
0.0
0
LINE
8
0
62
4
5
10f
100
AcDbEntity
100
AcDbLine
10
21.547700
20
49.700348
30
0.0
11
20.782333
21
49.852590
31
0.0
0
LINE
8
0
62
4
5
110
100
AcDbEntity
100
AcDbLine
10
22.782333
20
47.852588
30
0.0
11
22.782333
21
35.352588
31
0.0
0
LINE
8
0
62
4
5
111
100
AcDbEntity
100
AcDbLine
10
18.782333
20
37.602590
30
0.0
11
19.782333
21
37.602590
31
0.0
0
LINE
8
0
62
4
5
112
100
AcDbEntity
100
AcDbLine
10
20.032333
20
2.102585
30
0.0
11
20.032333
21
4.032421
31
0.0
0
LINE
8
0
62
4
5
113
100
AcDbEntity
100
AcDbLine
10
20.438507
20
4.227634
30
0.0
11
20.174038
21
4.257747
31
0.0
0
LINE
8
0
62
4
5
114
100
AcDbEntity
100
AcDbLine
10
20.174038
20
4.257747
30
0.0
11
20.032333
21
4.032421
31
0.0
0
LINE
8
0
62
4
5
115
100
AcDbEntity
100
AcDbLine
10
18.782333
20
4.102581
30
0.0
11
18.782333
21
37.602590
31
0.0
0
LINE
8
0
62
4
5
116
100
AcDbEntity
100
AcDbLine
10
17.782333
20
3.102583
30
0.0
11
18.171578
21
3.181154
31
0.0
0
LINE
8
0
62
4
5
117
100
AcDbEntity
100
AcDbLine
10
18.171578
20
3.181154
30
0.0
11
18.489439
21
3.395473
31
0.0
0
LINE
8
0
62
4
5
118
100
AcDbEntity
100
AcDbLine
10
18.489439
20
3.395473
30
0.0
11
18.703748
21
3.713340
31
0.0
0
LINE
8
0
62
4
5
119
100
AcDbEntity
100
AcDbLine
10
18.703748
20
3.713340
30
0.0
11
18.782333
21
4.102581
31
0.0
0
LINE
8
0
62
4
5
11a
100
AcDbEntity
100
AcDbLine
10
20.032333
20
2.102585
30
0.0
11
9.500111
21
2.102585
31
0.0
0
LINE
8
0
62
4
5
11b
100
AcDbEntity
100
AcDbLine
10
9.500111
20
2.102585
30
0.0
11
9.143168
21
2.258823
31
0.0
0
LINE
8
0
62
4
5
11c
100
AcDbEntity
100
AcDbLine
10
9.143168
20
2.258823
30
0.0
11
9.019689
21
2.602570
31
0.0
0
LINE
8
0
62
4
5
11d
100
AcDbEntity
100
AcDbLine
10
9.019689
20
2.602570
30
0.0
11
9.136422
21
2.946345
31
0.0
0
LINE
8
0
62
4
5
11e
100
AcDbEntity
100
AcDbLine
10
9.136422
20
2.946345
30
0.0
11
9.500111
21
3.102583
31
0.0
0
LINE
8
0
62
4
5
11f
100
AcDbEntity
100
AcDbLine
10
9.500111
20
3.102583
30
0.0
11
17.782333
21
3.102583
31
0.0
0
LINE
8
0
62
4
5
120
100
AcDbEntity
100
AcDbLine
10
24.121268
20
0.141112
30
0.0
11
0.141111
21
0.141000
31
0.0
0
LINE
8
0
62
4
5
121
100
AcDbEntity
100
AcDbLine
10
0.141111
20
0.141000
30
0.0
11
0.141111
21
10.141008
31
0.0
0
LINE
8
0
62
4
5
122
100
AcDbEntity
100
AcDbLine
10
0.141111
20
10.141008
30
0.0
11
5.141222
21
10.141008
31
0.0
0
LINE
8
0
62
4
5
123
100
AcDbEntity
100
AcDbLine
10
5.141222
20
10.141008
30
0.0
11
5.141113
21
39.853005
31
0.0
0
LINE
8
0
62
4
5
124
100
AcDbEntity
100
AcDbLine
10
5.141113
20
39.853005
30
0.0
11
0.141111
21
39.853005
31
0.0
0
LINE
8
0
62
4
5
125
100
AcDbEntity
100
AcDbLine
10
0.141111
20
39.853005
30
0.0
11
0.141111
21
49.853007
31
0.0
0
LINE
8
0
62
4
5
126
100
AcDbEntity
100
AcDbLine
10
0.141111
20
49.853007
30
0.0
11
5.629348
21
49.852725
31
0.0
0
LINE
8
0
62
4
5
127
100
AcDbEntity
100
AcDbLine
10
5.629348
20
49.852725
30
0.0
11
20.782333
21
49.852725
31
0.0
0
LINE
8
0
62
4
5
128
100
AcDbEntity
100
AcDbLine
10
24.433616
20
1.031552
30
0.0
11
20.438507
21
4.227634
31
0.0
0
LINE
8
0
62
4
5
129
100
AcDbEntity
100
AcDbLine
10
24.121268
20
0.141112
30
0.0
11
24.410450
21
0.233230
31
0.0
0
LINE
8
0
62
4
5
12a
100
AcDbEntity
100
AcDbLine
10
24.410450
20
0.233230
30
0.0
11
24.593089
21
0.475602
31
0.0
0
LINE
8
0
62
4
5
12b
100
AcDbEntity
100
AcDbLine
10
24.593089
20
0.475602
30
0.0
11
24.601892
21
0.778991
31
0.0
0
LINE
8
0
62
4
5
12c
100
AcDbEntity
100
AcDbLine
10
24.601891
20
0.778991
30
0.0
11
24.433616
21
1.031552
31
0.0
0
LINE
8
0
62
4
5
12d
100
AcDbEntity
100
AcDbLine
10
19.782333
20
37.602590
30
0.0
11
20.823319
21
35.421806
31
0.0
0
LINE
8
0
62
4
5
12e
100
AcDbEntity
100
AcDbLine
10
21.725775
20
34.852589
30
0.0
11
22.282333
21
34.852589
31
0.0
0
LINE
8
0
62
4
5
12f
100
AcDbEntity
100
AcDbLine
10
20.823319
20
35.421806
30
0.0
11
21.192288
21
35.006781
31
0.0
0
LINE
8
0
62
4
5
130
100
AcDbEntity
100
AcDbLine
10
21.192288
20
35.006781
30
0.0
11
21.725775
21
34.852589
31
0.0
  0
ENDSEC
  0
SECTION
  2
OBJECTS
  0
DICTIONARY
  5
C
330
0
100
AcDbDictionary
  3
ACAD_GROUP
350
D
  3
ACAD_MLINESTYLE
350
17
  0
DICTIONARY
  5
D
330
C
100
AcDbDictionary
  0
DICTIONARY
  5
1A
330
C
100
AcDbDictionary
  0
DICTIONARY
  5
17
330
C
100
AcDbDictionary
  3
STANDARD
350
18
  0
DICTIONARY
  5
19
330
C
100
AcDbDictionary
  0
ENDSEC
  0
EOF
